<svg xmlns="http://www.w3.org/2000/svg" version="1.1" xmlns:xlink="http://www.w3.org/1999/xlink" xmlns:svgjs="http://svgjs.dev/svgjs" width="1000" height="1000" viewBox="0 0 1000 1000"><rect width="1000" height="1000" fill="#ff908b"></rect><g transform="matrix(0.7,0,0,0.7,150,150)"><svg viewBox="0 0 280 280" data-background-color="#ff908b" preserveAspectRatio="xMidYMid meet" height="1000" width="1000" xmlns="http://www.w3.org/2000/svg" xmlns:xlink="http://www.w3.org/1999/xlink"><defs></defs><g id="tight-bounds" transform="matrix(1,0,0,1,0,0)"><svg viewBox="0 0 280 280" height="280" width="280"><g><svg viewBox="0 0 280 280" height="280" width="280"><g><svg viewBox="0 0 280 280" height="280" width="280"><g><svg viewBox="0 0 280 280" height="280" width="280"><g><svg viewBox="0 0 280 280" height="280" width="280"><g transform="matrix(1,0,0,1,82.9404111292522,74.00336708925556)"><svg viewBox="0 0 114.11917774149559 131.99326582148888" height="131.99326582148888" width="114.11917774149559"><g><svg xmlns="http://www.w3.org/2000/svg" xmlns:xlink="http://www.w3.org/1999/xlink" version="1.1" x="0" y="0" viewBox="9 1 83 96" enable-background="new 0 0 100 100" xml:space="preserve" height="131.99326582148888" width="114.11917774149559" class="icon-o-0" data-fill-palette-color="accent" id="o-0"><g fill="#ffffff" data-fill-palette-color="accent"><path fill="#ffffff" d="M71.3 10.01C57.831 10.01 50.55 1 50.55 1s-7.306 9.01-20.774 9.01C17.371 10.01 9 2.528 9 2.528v48.928C9.378 83.682 50.5 97 50.5 97S92 83.682 92 51.456V2.528C92 2.528 83.703 10.01 71.3 10.01z" data-fill-palette-color="accent"></path></g></svg></g></svg></g><path d="M21.878 105.782l-0.719 2.223c-0.051 0.157-0.148 0.278-0.291 0.362-0.141 0.077-0.3 0.088-0.477 0.03v0l-15.852-5.131c-0.177-0.057-0.303-0.16-0.378-0.307-0.073-0.154-0.084-0.31-0.034-0.467v0l0.72-2.222c0.057-0.177 0.159-0.3 0.304-0.369 0.145-0.069 0.307-0.075 0.483-0.017v0l6.284 2.034 2.323-7.179-6.283-2.034c-0.177-0.057-0.302-0.163-0.376-0.317-0.075-0.148-0.087-0.303-0.033-0.467v0l0.706-2.183c0.059-0.184 0.163-0.313 0.311-0.388 0.148-0.075 0.31-0.084 0.487-0.027v0l15.851 5.13c0.157 0.051 0.277 0.151 0.359 0.301 0.075 0.148 0.083 0.313 0.024 0.497v0l-0.707 2.183c-0.053 0.164-0.153 0.284-0.301 0.359-0.156 0.08-0.313 0.094-0.47 0.043v0l-6.529-2.113-2.324 7.178 6.53 2.113c0.157 0.051 0.278 0.148 0.362 0.291 0.077 0.141 0.088 0.3 0.03 0.477zM30.281 85.116l-1.033 2.083c-0.077 0.154-0.193 0.258-0.351 0.311-0.166 0.056-0.323 0.047-0.471-0.027v0l-5.185-2.572-12.256 0.657c-0.037-0.003-0.085-0.007-0.143-0.014-0.049-0.009-0.096-0.024-0.139-0.045v0c-0.142-0.07-0.236-0.175-0.283-0.314-0.04-0.135-0.032-0.262 0.026-0.379v0l1.016-2.046c0.089-0.179 0.206-0.306 0.35-0.38 0.151-0.071 0.292-0.101 0.425-0.089v0l8.6-0.591-4.746-7.177c-0.08-0.117-0.139-0.254-0.177-0.411-0.028-0.16 0.004-0.333 0.096-0.518v0l0.996-2.009c0.07-0.142 0.172-0.238 0.305-0.288 0.135-0.04 0.274-0.025 0.416 0.045v0c0.043 0.021 0.085 0.046 0.125 0.074 0.046 0.031 0.077 0.069 0.093 0.115v0l6.89 10.157 5.185 2.573c0.148 0.074 0.252 0.19 0.311 0.35 0.05 0.163 0.033 0.328-0.05 0.495zM35.98 75.089l-1.345 2.034c-0.091 0.138-0.22 0.226-0.386 0.266-0.168 0.029-0.321-0.002-0.459-0.093v0l-13.898-9.189c-0.155-0.103-0.249-0.235-0.283-0.398-0.029-0.168 0.002-0.321 0.093-0.459v0l3.785-5.725c0.733-1.109 1.544-1.961 2.433-2.554 0.898-0.596 1.847-0.889 2.849-0.88 1.007 0.013 2.037 0.368 3.089 1.064v0c1.069 0.707 1.798 1.515 2.187 2.425 0.39 0.91 0.48 1.891 0.272 2.943-0.204 1.046-0.673 2.124-1.406 3.233v0l-2.104 3.181 5.001 3.307c0.138 0.091 0.228 0.217 0.271 0.377 0.037 0.157 0.004 0.312-0.099 0.468zM23.718 66.312l4.698 3.107 2.058-3.113c0.547-0.828 0.772-1.592 0.674-2.293-0.102-0.695-0.538-1.297-1.308-1.806v0c-0.713-0.471-1.42-0.645-2.121-0.523-0.71 0.125-1.358 0.63-1.943 1.515v0zM51.294 55.321l-7.457 8.704c-0.108 0.126-0.246 0.197-0.416 0.216-0.17 0.008-0.318-0.041-0.444-0.149v0l-12.653-10.84c-0.141-0.121-0.218-0.264-0.231-0.429-0.008-0.17 0.041-0.318 0.149-0.444v0l7.323-8.548c0.126-0.147 0.271-0.226 0.436-0.239 0.165-0.013 0.318 0.041 0.46 0.163v0l1.287 1.102c0.131 0.112 0.203 0.251 0.216 0.416 0.013 0.165-0.044 0.321-0.17 0.468v0l-5.473 6.389 3.437 2.945 5.111-5.965c0.121-0.141 0.264-0.223 0.428-0.246 0.16-0.017 0.313 0.037 0.46 0.163v0l1.201 1.029c0.141 0.121 0.216 0.262 0.223 0.422 0.003 0.166-0.056 0.32-0.177 0.461v0l-5.111 5.965 3.556 3.046 5.608-6.546c0.121-0.141 0.269-0.219 0.444-0.232 0.165-0.013 0.318 0.041 0.46 0.163v0l1.287 1.103c0.126 0.108 0.197 0.246 0.215 0.415 0.008 0.17-0.048 0.326-0.169 0.468zM55.708 51.358l-1.735 1.565c-0.123 0.111-0.269 0.164-0.44 0.16-0.17-0.014-0.31-0.082-0.421-0.205v0l-11.16-12.371c-0.125-0.138-0.183-0.29-0.174-0.455 0.014-0.17 0.082-0.31 0.205-0.421v0l4.919-4.438c1.535-1.385 3.063-2.123 4.585-2.216 1.527-0.087 2.902 0.547 4.125 1.903v0c0.845 0.936 1.316 1.922 1.414 2.956 0.098 1.034-0.112 2.041-0.631 3.019v0l7.139 2.344c0.11 0.04 0.193 0.09 0.248 0.152v0c0.102 0.113 0.143 0.246 0.126 0.401-0.013 0.151-0.068 0.27-0.165 0.358v0l-1.735 1.564c-0.215 0.194-0.429 0.285-0.643 0.275-0.219-0.016-0.412-0.05-0.58-0.103v0l-6.505-2.289-2.64 2.381 4.112 4.559c0.111 0.123 0.167 0.267 0.168 0.433-0.003 0.161-0.074 0.304-0.212 0.428zM46.067 39.76l3.634 4.029 2.679-2.416c0.773-0.697 1.191-1.39 1.256-2.079 0.07-0.694-0.181-1.358-0.754-1.993v0c-0.572-0.634-1.209-0.96-1.911-0.976-0.701-0.026-1.443 0.314-2.226 1.019v0zM71.587 38.796l-1.934 1.328c-0.142 0.098-0.294 0.131-0.458 0.1-0.172-0.032-0.305-0.116-0.399-0.252v0l-8.009-11.665-3.902 2.68c-0.136 0.094-0.289 0.127-0.457 0.101-0.167-0.036-0.297-0.122-0.391-0.259v0l-1.076-1.568c-0.105-0.153-0.143-0.311-0.113-0.474 0.036-0.167 0.122-0.297 0.258-0.391v0l10.762-7.388c0.153-0.105 0.311-0.143 0.474-0.113 0.163 0.03 0.297 0.122 0.402 0.275v0l1.077 1.568c0.094 0.136 0.127 0.289 0.101 0.458-0.03 0.163-0.122 0.297-0.276 0.402v0l-3.885 2.668 8.009 11.664c0.094 0.136 0.127 0.289 0.101 0.457-0.03 0.163-0.125 0.299-0.284 0.409zM88.819 28.913l-10.118 5.386c-0.146 0.078-0.301 0.094-0.466 0.049-0.162-0.054-0.281-0.155-0.359-0.3v0l-7.83-14.707c-0.087-0.164-0.107-0.326-0.058-0.484 0.054-0.162 0.155-0.281 0.3-0.359v0l9.936-5.289c0.17-0.091 0.335-0.112 0.493-0.064 0.158 0.048 0.281 0.155 0.369 0.319v0l0.796 1.496c0.081 0.152 0.097 0.307 0.049 0.466-0.048 0.158-0.158 0.283-0.328 0.374v0l-7.426 3.953 2.127 3.996 6.934-3.691c0.164-0.087 0.327-0.112 0.488-0.073 0.155 0.042 0.278 0.149 0.369 0.319v0l0.743 1.396c0.087 0.164 0.105 0.323 0.054 0.475-0.058 0.156-0.169 0.277-0.333 0.364v0l-6.934 3.692 2.2 4.133 7.609-4.051c0.164-0.087 0.33-0.106 0.498-0.054 0.158 0.048 0.281 0.155 0.369 0.318v0l0.797 1.497c0.078 0.146 0.094 0.301 0.049 0.465-0.054 0.162-0.164 0.286-0.328 0.374zM94.203 26.892l-2.011 0.76c-0.155 0.059-0.311 0.055-0.468-0.01-0.153-0.075-0.259-0.189-0.318-0.344v0l-5.895-15.583c-0.066-0.174-0.065-0.337 0.003-0.488 0.075-0.153 0.189-0.259 0.344-0.318v0l1.846-0.698c0.226-0.085 0.409-0.096 0.552-0.032 0.142 0.064 0.238 0.113 0.287 0.145v0l10.948 8.113-3.975-10.508c-0.066-0.174-0.068-0.335-0.006-0.484 0.062-0.149 0.179-0.256 0.353-0.321v0l2.011-0.761c0.174-0.066 0.337-0.065 0.487 0.003 0.157 0.066 0.269 0.185 0.335 0.36v0l5.885 15.554c0.066 0.174 0.063 0.341-0.009 0.501-0.068 0.151-0.183 0.257-0.344 0.318v0l-1.866 0.706c-0.219 0.083-0.398 0.088-0.536 0.015-0.141-0.079-0.239-0.127-0.297-0.142v0l-10.837-7.879 3.895 10.295c0.059 0.155 0.055 0.311-0.011 0.469-0.068 0.151-0.192 0.261-0.373 0.328zM113.921 21.162v0c-1.546 0.347-2.888 0.408-4.026 0.184-1.145-0.223-2.073-0.647-2.785-1.271-0.704-0.619-1.164-1.331-1.381-2.137v0c-0.033-0.148-0.011-0.284 0.068-0.407 0.078-0.123 0.191-0.202 0.339-0.235v0l2.219-0.498c0.222-0.05 0.397-0.04 0.525 0.03 0.127 0.063 0.246 0.153 0.358 0.27v0c0.172 0.293 0.434 0.563 0.785 0.808 0.352 0.246 0.795 0.411 1.33 0.496 0.536 0.091 1.177 0.053 1.923-0.114v0c1.203-0.27 2.056-0.67 2.559-1.199 0.494-0.535 0.665-1.142 0.513-1.821v0c-0.109-0.484-0.353-0.835-0.735-1.053-0.382-0.225-0.926-0.382-1.631-0.471-0.713-0.094-1.641-0.154-2.784-0.18v0c-1.317-0.015-2.444-0.143-3.381-0.385-0.935-0.235-1.687-0.627-2.255-1.177-0.57-0.557-0.967-1.333-1.191-2.329v0c-0.217-0.968-0.148-1.884 0.21-2.748 0.355-0.871 0.972-1.631 1.85-2.28 0.878-0.649 1.99-1.125 3.334-1.426v0c1.082-0.243 2.073-0.314 2.972-0.212 0.892 0.103 1.667 0.332 2.325 0.686 0.657 0.347 1.191 0.76 1.603 1.239 0.41 0.473 0.683 0.966 0.819 1.479v0c0.03 0.134 0.01 0.266-0.06 0.395-0.063 0.127-0.179 0.21-0.347 0.247v0l-2.319 0.521c-0.134 0.03-0.276 0.027-0.426-0.01-0.15-0.037-0.285-0.137-0.407-0.301v0c-0.217-0.495-0.642-0.862-1.274-1.101-0.628-0.247-1.375-0.274-2.243-0.079v0c-0.901 0.202-1.586 0.533-2.055 0.991-0.477 0.453-0.637 1.029-0.48 1.729v0c0.106 0.471 0.33 0.826 0.674 1.066 0.345 0.247 0.847 0.421 1.504 0.521 0.658 0.099 1.517 0.168 2.578 0.205v0c1.483-0.001 2.721 0.106 3.716 0.32 0.994 0.215 1.768 0.595 2.322 1.142 0.56 0.545 0.951 1.308 1.171 2.29v0c0.248 1.103 0.162 2.107-0.256 3.012-0.411 0.904-1.105 1.685-2.08 2.342-0.969 0.655-2.162 1.142-3.581 1.461zM126.311 18.644l-2.386 0.328c-0.164 0.023-0.315-0.016-0.454-0.115-0.133-0.107-0.211-0.242-0.233-0.406v0l-2.273-16.526c-0.023-0.171 0.015-0.322 0.115-0.454 0.107-0.133 0.242-0.211 0.406-0.233v0l2.386-0.328c0.184-0.025 0.339 0.012 0.464 0.113 0.125 0.101 0.2 0.237 0.223 0.408v0l2.273 16.526c0.023 0.164-0.012 0.315-0.104 0.452-0.093 0.131-0.232 0.209-0.417 0.235zM137.14 18.414v0c-1.515 0.052-2.829-0.155-3.941-0.62-1.105-0.465-1.982-1.211-2.631-2.236-0.649-1.033-1.028-2.33-1.137-3.891v0c-0.039-0.736-0.071-1.463-0.095-2.179-0.025-0.716-0.043-1.45-0.055-2.201v0c0.002-1.551 0.299-2.858 0.89-3.919 0.598-1.062 1.435-1.873 2.512-2.434 1.084-0.568 2.359-0.877 3.826-0.927v0c1.467-0.05 2.764 0.171 3.891 0.663 1.12 0.486 2.014 1.238 2.683 2.256 0.669 1.018 1.054 2.301 1.156 3.849v0c0.06 0.749 0.102 1.482 0.127 2.198 0.025 0.716 0.032 1.443 0.023 2.181v0c0.005 1.565-0.284 2.885-0.868 3.96-0.577 1.068-1.404 1.872-2.482 2.412-1.085 0.54-2.384 0.837-3.899 0.888zM137.039 15.47v0c1.109-0.038 2-0.396 2.673-1.074 0.68-0.678 1.019-1.762 1.015-3.251v0c0.009-0.752 0.002-1.444-0.019-2.078-0.022-0.64-0.063-1.328-0.122-2.064v0c-0.068-0.984-0.278-1.783-0.631-2.398-0.352-0.608-0.815-1.044-1.389-1.307-0.574-0.263-1.227-0.382-1.956-0.357v0c-0.716 0.025-1.352 0.188-1.907 0.489-0.548 0.301-0.98 0.768-1.297 1.399-0.309 0.638-0.464 1.45-0.464 2.436v0c0.011 0.737 0.028 1.426 0.05 2.067 0.022 0.634 0.052 1.325 0.092 2.075v0c0.099 1.486 0.511 2.544 1.236 3.174 0.718 0.63 1.624 0.927 2.719 0.889zM149.867 18.478l-2.14-0.212c-0.165-0.016-0.303-0.089-0.414-0.217-0.104-0.135-0.148-0.285-0.133-0.45v0l1.639-16.58c0.018-0.185 0.091-0.33 0.22-0.435 0.135-0.104 0.285-0.148 0.449-0.132v0l1.965 0.194c0.24 0.024 0.409 0.096 0.508 0.216 0.099 0.121 0.163 0.207 0.192 0.258v0l6.207 12.132 1.105-11.181c0.018-0.185 0.088-0.331 0.209-0.436 0.121-0.106 0.274-0.149 0.46-0.131v0l2.139 0.211c0.185 0.018 0.33 0.091 0.435 0.22 0.112 0.129 0.159 0.286 0.141 0.471v0l-1.636 16.549c-0.018 0.185-0.095 0.333-0.231 0.445-0.128 0.105-0.278 0.149-0.449 0.132v0l-1.985-0.196c-0.233-0.023-0.395-0.098-0.487-0.225-0.091-0.134-0.158-0.22-0.203-0.259v0l-6.211-11.872-1.083 10.954c-0.016 0.165-0.089 0.303-0.217 0.414-0.128 0.105-0.288 0.148-0.48 0.13zM170.541 21.91l-2.127-0.643c-0.132-0.04-0.236-0.125-0.312-0.256-0.076-0.131-0.092-0.269-0.047-0.414v0c0.02-0.066 0.058-0.134 0.115-0.203v0l10.672-14.018c0.094-0.144 0.233-0.257 0.416-0.338 0.174-0.077 0.384-0.078 0.627-0.005v0l2.662 0.804c0.251 0.076 0.421 0.192 0.51 0.349 0.094 0.165 0.15 0.337 0.168 0.515v0l1.131 17.585c-0.011 0.083-0.026 0.158-0.046 0.224v0c-0.044 0.145-0.13 0.252-0.259 0.321-0.129 0.069-0.256 0.085-0.381 0.047v0l-2.137-0.646c-0.224-0.068-0.377-0.171-0.457-0.311-0.074-0.137-0.112-0.261-0.115-0.369v0l-0.245-3.335-7.272-2.198-2.05 2.641c-0.063 0.089-0.163 0.17-0.301 0.244-0.137 0.074-0.322 0.076-0.552 0.006zM180.202 9.735l-5.045 6.725 5.551 1.677zM191.089 29.471v0c-1.447-0.647-2.559-1.401-3.336-2.261-0.784-0.864-1.274-1.759-1.471-2.685-0.194-0.917-0.136-1.763 0.172-2.538v0c0.062-0.138 0.161-0.234 0.298-0.286 0.137-0.052 0.274-0.047 0.412 0.014v0l2.076 0.929c0.208 0.093 0.342 0.206 0.403 0.339 0.064 0.127 0.106 0.27 0.125 0.429v0c-0.038 0.338 0.011 0.71 0.146 1.118 0.135 0.407 0.391 0.805 0.768 1.193 0.375 0.394 0.911 0.747 1.61 1.059v0c1.126 0.503 2.049 0.693 2.768 0.57 0.716-0.133 1.216-0.517 1.5-1.152v0c0.203-0.453 0.216-0.881 0.042-1.283-0.172-0.409-0.514-0.86-1.025-1.353-0.515-0.502-1.223-1.105-2.124-1.81v0c-1.046-0.8-1.872-1.577-2.478-2.331-0.609-0.748-0.977-1.512-1.103-2.294-0.123-0.787 0.023-1.647 0.439-2.577v0c0.405-0.906 1.009-1.598 1.812-2.077 0.806-0.485 1.755-0.725 2.846-0.72 1.092 0.005 2.267 0.289 3.526 0.852v0c1.013 0.453 1.849 0.989 2.507 1.608 0.653 0.616 1.137 1.263 1.454 1.941 0.319 0.671 0.5 1.322 0.542 1.952 0.045 0.624-0.031 1.183-0.229 1.675v0c-0.056 0.126-0.151 0.219-0.284 0.281-0.127 0.064-0.269 0.061-0.426-0.01v0l-2.17-0.97c-0.126-0.056-0.238-0.144-0.335-0.263-0.098-0.119-0.146-0.281-0.146-0.484v0c0.122-0.527 0.001-1.075-0.362-1.645-0.355-0.574-0.938-1.042-1.75-1.405v0c-0.843-0.377-1.589-0.522-2.239-0.436-0.654 0.078-1.127 0.443-1.419 1.098v0c-0.197 0.44-0.23 0.86-0.099 1.258 0.129 0.405 0.427 0.844 0.895 1.317 0.468 0.473 1.115 1.042 1.942 1.706v0c1.189 0.886 2.117 1.713 2.786 2.48 0.668 0.767 1.061 1.535 1.178 2.304 0.123 0.772-0.021 1.617-0.432 2.536v0c-0.461 1.032-1.13 1.785-2.008 2.261-0.871 0.479-1.893 0.689-3.067 0.632-1.168-0.054-2.416-0.378-3.744-0.972zM204.774 36.788v0c-1.354-0.823-2.363-1.711-3.026-2.663-0.669-0.955-1.043-1.905-1.123-2.848-0.077-0.934 0.086-1.766 0.49-2.496v0c0.079-0.13 0.189-0.212 0.331-0.247 0.142-0.035 0.278-0.013 0.407 0.067v0l1.943 1.181c0.194 0.118 0.313 0.247 0.358 0.387 0.048 0.134 0.071 0.281 0.07 0.442v0c-0.08 0.33-0.079 0.706 0.004 1.127 0.083 0.421 0.287 0.848 0.612 1.28 0.322 0.438 0.81 0.856 1.464 1.253v0c1.054 0.641 1.945 0.945 2.675 0.913 0.727-0.042 1.271-0.36 1.633-0.955v0c0.258-0.424 0.325-0.847 0.202-1.268-0.119-0.427-0.402-0.918-0.847-1.471-0.448-0.563-1.074-1.25-1.879-2.062v0c-0.938-0.925-1.66-1.8-2.167-2.624-0.51-0.818-0.779-1.623-0.806-2.413-0.024-0.797 0.229-1.631 0.759-2.502v0c0.516-0.848 1.202-1.459 2.059-1.833 0.86-0.38 1.832-0.499 2.914-0.357 1.083 0.142 2.213 0.571 3.39 1.287v0c0.948 0.576 1.71 1.213 2.286 1.911 0.57 0.694 0.97 1.396 1.199 2.107 0.232 0.706 0.33 1.374 0.293 2.005-0.033 0.625-0.179 1.169-0.437 1.633v0c-0.072 0.118-0.177 0.199-0.317 0.243-0.134 0.048-0.274 0.027-0.422-0.063v0l-2.031-1.235c-0.118-0.072-0.218-0.173-0.3-0.303-0.082-0.13-0.11-0.297-0.083-0.498v0c0.187-0.507 0.136-1.066-0.154-1.678-0.28-0.614-0.8-1.152-1.559-1.614v0c-0.789-0.48-1.511-0.717-2.167-0.713-0.658-0.005-1.173 0.299-1.546 0.911v0c-0.251 0.412-0.336 0.824-0.255 1.236 0.077 0.418 0.317 0.891 0.722 1.419 0.405 0.528 0.976 1.174 1.713 1.937v0c1.068 1.029 1.886 1.965 2.453 2.81 0.567 0.845 0.86 1.656 0.878 2.433 0.025 0.781-0.224 1.602-0.746 2.461v0c-0.587 0.966-1.346 1.629-2.276 1.992-0.924 0.366-1.965 0.446-3.123 0.242-1.152-0.201-2.349-0.679-3.591-1.434zM215.441 43.575l-1.945-1.419c-0.134-0.097-0.216-0.23-0.247-0.398-0.022-0.169 0.016-0.321 0.114-0.454v0l9.834-13.475c0.102-0.139 0.234-0.222 0.397-0.247 0.169-0.022 0.321 0.016 0.455 0.114v0l1.945 1.419c0.15 0.11 0.235 0.244 0.255 0.404 0.02 0.16-0.021 0.309-0.122 0.448v0l-9.834 13.475c-0.097 0.134-0.227 0.218-0.389 0.254-0.158 0.03-0.312-0.01-0.463-0.121zM222.914 50.474v0c-1.18-1.058-2.008-2.116-2.484-3.173-0.482-1.062-0.675-2.064-0.581-3.006 0.096-0.932 0.409-1.72 0.941-2.364v0c0.101-0.113 0.225-0.173 0.371-0.181 0.146-0.008 0.275 0.039 0.388 0.14v0l1.692 1.518c0.169 0.152 0.263 0.3 0.281 0.446 0.022 0.14 0.018 0.289-0.013 0.447v0c-0.139 0.31-0.207 0.68-0.203 1.109 0.004 0.429 0.126 0.886 0.367 1.371 0.236 0.49 0.639 0.99 1.209 1.501v0c0.918 0.824 1.739 1.287 2.461 1.388 0.722 0.093 1.316-0.12 1.78-0.638v0c0.331-0.369 0.475-0.772 0.433-1.209-0.039-0.442-0.226-0.976-0.563-1.602-0.337-0.636-0.826-1.426-1.468-2.372v0c-0.752-1.082-1.301-2.074-1.647-2.977-0.351-0.898-0.468-1.739-0.349-2.521 0.123-0.787 0.525-1.561 1.206-2.32v0c0.663-0.739 1.449-1.213 2.36-1.423 0.915-0.216 1.892-0.154 2.93 0.185 1.038 0.339 2.07 0.969 3.096 1.889v0c0.826 0.741 1.458 1.507 1.896 2.298 0.433 0.786 0.696 1.55 0.791 2.292 0.098 0.736 0.072 1.411-0.081 2.024-0.148 0.608-0.391 1.117-0.73 1.525v0c-0.092 0.103-0.211 0.163-0.356 0.181-0.14 0.022-0.275-0.024-0.403-0.14v0l-1.769-1.587c-0.103-0.092-0.182-0.21-0.239-0.353-0.057-0.143-0.054-0.312 0.009-0.506v0c0.277-0.464 0.33-1.023 0.158-1.677-0.162-0.655-0.574-1.279-1.236-1.872v0c-0.687-0.617-1.354-0.983-1.999-1.1-0.646-0.126-1.208 0.078-1.687 0.611v0c-0.322 0.359-0.482 0.748-0.478 1.168-0.001 0.425 0.148 0.934 0.449 1.528 0.301 0.594 0.743 1.333 1.328 2.218v0c0.861 1.207 1.492 2.278 1.894 3.213 0.402 0.935 0.541 1.786 0.416 2.554-0.119 0.773-0.515 1.533-1.186 2.282v0c-0.755 0.841-1.622 1.354-2.603 1.539-0.975 0.19-2.013 0.077-3.114-0.336-1.096-0.409-2.185-1.099-3.267-2.07zM234.361 61.978l-1.537-1.772c-0.113-0.13-0.163-0.278-0.151-0.443 0.012-0.175 0.081-0.317 0.206-0.425v0l10.691-9.269-3.102-3.577c-0.108-0.125-0.159-0.273-0.151-0.443 0.017-0.17 0.088-0.309 0.213-0.417v0l1.437-1.246c0.141-0.122 0.293-0.177 0.458-0.165 0.17 0.017 0.309 0.088 0.417 0.213v0l8.552 9.862c0.122 0.141 0.177 0.293 0.165 0.459-0.012 0.165-0.088 0.309-0.228 0.431v0l-1.437 1.246c-0.125 0.108-0.273 0.159-0.443 0.151-0.165-0.012-0.309-0.088-0.431-0.228v0l-3.087-3.561-10.691 9.269c-0.125 0.108-0.273 0.159-0.443 0.152-0.165-0.012-0.311-0.091-0.438-0.237zM239.816 68.905l-1.227-1.852c-0.076-0.115-0.102-0.247-0.077-0.396 0.025-0.149 0.101-0.265 0.228-0.349v0c0.057-0.038 0.13-0.066 0.218-0.082v0l17.162-3.983c0.164-0.051 0.343-0.05 0.536 0.005 0.183 0.052 0.345 0.184 0.486 0.396v0l1.536 2.318c0.145 0.218 0.201 0.416 0.17 0.594-0.033 0.187-0.099 0.355-0.199 0.504v0l-10.351 14.261c-0.061 0.057-0.121 0.105-0.178 0.143v0c-0.126 0.084-0.261 0.111-0.405 0.082-0.143-0.029-0.251-0.098-0.323-0.207v0l-1.233-1.861c-0.129-0.195-0.181-0.372-0.153-0.531 0.031-0.153 0.08-0.272 0.147-0.358v0l1.939-2.724-4.196-6.332-3.264 0.724c-0.105 0.028-0.234 0.027-0.387-0.004-0.153-0.031-0.296-0.147-0.429-0.348zM255.024 65.697l-8.176 1.958 3.203 4.834zM249.532 84.637l-0.955-1.926c-0.073-0.148-0.085-0.304-0.036-0.467 0.059-0.16 0.163-0.277 0.311-0.35v0l14.927-7.401c0.167-0.083 0.329-0.098 0.485-0.045 0.16 0.059 0.277 0.163 0.351 0.311v0l0.877 1.769c0.107 0.216 0.136 0.398 0.086 0.546-0.05 0.148-0.089 0.248-0.117 0.3v0l-6.996 11.694 10.066-4.991c0.167-0.083 0.327-0.101 0.481-0.054 0.154 0.047 0.272 0.153 0.355 0.32v0l0.955 1.926c0.083 0.167 0.098 0.329 0.044 0.486-0.05 0.163-0.158 0.286-0.325 0.369v0l-14.899 7.387c-0.167 0.083-0.333 0.096-0.499 0.04-0.157-0.053-0.274-0.157-0.35-0.311v0l-0.886-1.787c-0.104-0.21-0.127-0.387-0.068-0.532 0.065-0.148 0.103-0.251 0.112-0.309v0l6.773-11.561-9.861 4.89c-0.148 0.073-0.304 0.085-0.467 0.035-0.157-0.053-0.278-0.166-0.364-0.339zM257.651 104.276l-0.74-2.226c-0.054-0.163-0.044-0.319 0.03-0.468 0.079-0.157 0.196-0.261 0.353-0.313v0l13.428-4.461-1.492-4.492c-0.052-0.157-0.042-0.313 0.03-0.467 0.081-0.15 0.2-0.251 0.356-0.304v0l1.805-0.6c0.177-0.059 0.339-0.051 0.487 0.024 0.15 0.081 0.251 0.2 0.304 0.356v0l4.115 12.389c0.059 0.177 0.051 0.339-0.023 0.487-0.074 0.148-0.2 0.251-0.377 0.31v0l-1.804 0.599c-0.157 0.052-0.313 0.042-0.468-0.03-0.148-0.074-0.251-0.2-0.31-0.376v0l-1.486-4.473-13.428 4.461c-0.157 0.052-0.313 0.042-0.467-0.03-0.148-0.074-0.253-0.203-0.313-0.386zM9.223 182.91l-0.72-2.222c-0.051-0.157-0.043-0.312 0.024-0.464 0.069-0.145 0.192-0.247 0.369-0.304v0l15.851-5.131c0.177-0.057 0.339-0.048 0.487 0.027 0.15 0.082 0.25 0.202 0.301 0.359v0l0.719 2.222c0.057 0.177 0.047 0.336-0.03 0.477-0.077 0.141-0.205 0.24-0.382 0.298v0l-6.284 2.033 2.324 7.179 6.283-2.034c0.177-0.057 0.34-0.045 0.49 0.037 0.148 0.075 0.248 0.195 0.301 0.359v0l0.707 2.183c0.059 0.184 0.051 0.349-0.024 0.496-0.075 0.148-0.202 0.25-0.379 0.308v0l-15.851 5.13c-0.157 0.051-0.313 0.04-0.467-0.033-0.148-0.075-0.251-0.205-0.311-0.389v0l-0.706-2.183c-0.053-0.164-0.042-0.32 0.033-0.467 0.08-0.156 0.198-0.26 0.356-0.31v0l6.529-2.114-2.323-7.178-6.529 2.113c-0.157 0.051-0.312 0.043-0.464-0.023-0.145-0.069-0.247-0.192-0.304-0.369zM18.366 205.392l-1.034-2.083c-0.077-0.154-0.088-0.31-0.035-0.467 0.056-0.166 0.158-0.286 0.306-0.359v0l5.185-2.573 6.89-10.157c0.025-0.028 0.057-0.063 0.098-0.106 0.037-0.034 0.077-0.061 0.12-0.083v0c0.142-0.07 0.282-0.082 0.421-0.035 0.132 0.05 0.228 0.133 0.286 0.25v0l1.015 2.046c0.089 0.179 0.119 0.349 0.091 0.509-0.034 0.163-0.096 0.294-0.186 0.392v0l-4.733 7.206 8.587 0.562c0.142 0.007 0.286 0.042 0.434 0.108 0.145 0.074 0.263 0.204 0.355 0.389v0l0.997 2.009c0.07 0.142 0.085 0.281 0.045 0.416-0.05 0.132-0.146 0.234-0.288 0.305v0c-0.043 0.021-0.088 0.04-0.134 0.055-0.052 0.018-0.102 0.02-0.148 0.004v0l-12.256-0.657-5.185 2.572c-0.148 0.074-0.304 0.085-0.467 0.036-0.16-0.059-0.281-0.172-0.364-0.339zM24.884 216.844l-1.345-2.035c-0.091-0.138-0.122-0.291-0.093-0.459 0.039-0.166 0.127-0.295 0.265-0.386v0l13.898-9.189c0.155-0.103 0.314-0.137 0.477-0.104 0.166 0.039 0.295 0.127 0.386 0.265v0l3.785 5.725c0.733 1.109 1.199 2.189 1.398 3.238 0.197 1.059 0.094 2.048-0.307 2.966-0.407 0.921-1.136 1.73-2.188 2.426v0c-1.069 0.707-2.099 1.061-3.088 1.063-0.99 0.002-1.928-0.299-2.815-0.902-0.883-0.598-1.691-1.451-2.424-2.561v0l-2.103-3.181-5.001 3.306c-0.138 0.091-0.289 0.125-0.453 0.102-0.159-0.027-0.289-0.119-0.392-0.274zM37.762 208.998l-4.698 3.107 2.058 3.112c0.547 0.828 1.163 1.334 1.846 1.518 0.68 0.178 1.405 0.013 2.174-0.496v0c0.713-0.471 1.15-1.053 1.311-1.747 0.163-0.703-0.048-1.497-0.633-2.382v0zM41.193 237.929l-7.458-8.704c-0.108-0.126-0.157-0.274-0.149-0.444 0.018-0.17 0.09-0.308 0.216-0.416v0l12.652-10.84c0.141-0.121 0.294-0.175 0.46-0.162 0.17 0.018 0.308 0.09 0.416 0.215v0l7.323 8.548c0.126 0.147 0.182 0.302 0.169 0.467-0.013 0.165-0.09 0.308-0.231 0.429v0l-1.288 1.103c-0.131 0.112-0.279 0.162-0.444 0.149-0.165-0.013-0.311-0.092-0.436-0.239v0l-5.473-6.389-3.438 2.946 5.11 5.965c0.121 0.141 0.18 0.295 0.177 0.461-0.008 0.161-0.085 0.304-0.231 0.429v0l-1.2 1.029c-0.141 0.121-0.292 0.173-0.452 0.155-0.164-0.022-0.307-0.104-0.428-0.245v0l-5.111-5.965-3.556 3.046 5.609 6.546c0.121 0.141 0.175 0.299 0.161 0.474-0.013 0.165-0.09 0.308-0.231 0.429v0l-1.287 1.103c-0.126 0.108-0.274 0.157-0.444 0.149-0.17-0.018-0.315-0.098-0.436-0.239zM46.798 243.115l-1.735-1.565c-0.123-0.111-0.191-0.251-0.204-0.421-0.004-0.171 0.05-0.317 0.16-0.44v0l11.16-12.371c0.125-0.138 0.27-0.211 0.435-0.22 0.171-0.004 0.317 0.05 0.44 0.16v0l4.919 4.438c1.535 1.385 2.426 2.829 2.675 4.333 0.244 1.51-0.246 2.942-1.469 4.299v0c-0.845 0.936-1.776 1.506-2.795 1.71-1.019 0.204-2.042 0.098-3.068-0.318v0l-1.598 7.342c-0.028 0.114-0.07 0.201-0.126 0.262v0c-0.102 0.113-0.23 0.168-0.387 0.166-0.151 0.003-0.275-0.04-0.372-0.127v0l-1.734-1.564c-0.215-0.194-0.328-0.398-0.339-0.612-0.006-0.219 0.008-0.415 0.043-0.588v0l1.608-6.706-2.64-2.381-4.112 4.558c-0.111 0.123-0.249 0.193-0.413 0.212-0.16 0.013-0.31-0.043-0.448-0.167zM57.344 232.334l-3.634 4.029 2.678 2.416c0.773 0.697 1.505 1.042 2.198 1.036 0.698-0.002 1.333-0.32 1.905-0.954v0c0.572-0.634 0.831-1.301 0.775-2.001-0.046-0.7-0.46-1.403-1.243-2.11v0zM64.058 256.766l-1.934-1.328c-0.142-0.098-0.228-0.228-0.259-0.39-0.032-0.172-0.001-0.327 0.093-0.463v0l8.008-11.665-3.902-2.679c-0.136-0.094-0.222-0.224-0.258-0.391-0.026-0.169 0.007-0.321 0.101-0.457v0l1.076-1.568c0.105-0.153 0.239-0.245 0.402-0.276 0.169-0.026 0.321 0.007 0.458 0.101v0l10.761 7.389c0.153 0.105 0.245 0.239 0.275 0.402 0.03 0.163-0.007 0.321-0.112 0.475v0l-1.077 1.568c-0.094 0.136-0.224 0.222-0.39 0.258-0.163 0.03-0.321-0.007-0.474-0.113v0l-3.886-2.667-8.009 11.664c-0.094 0.136-0.224 0.222-0.39 0.259-0.163 0.03-0.324-0.009-0.483-0.119zM82.568 267.425l-10.118-5.387c-0.146-0.078-0.246-0.197-0.301-0.359-0.045-0.165-0.029-0.32 0.049-0.466v0l7.83-14.706c0.087-0.164 0.21-0.271 0.368-0.319 0.165-0.045 0.32-0.029 0.466 0.049v0l9.936 5.289c0.17 0.091 0.28 0.215 0.328 0.373 0.048 0.158 0.029 0.32-0.059 0.484v0l-0.797 1.497c-0.081 0.152-0.201 0.252-0.359 0.3-0.158 0.048-0.323 0.027-0.493-0.063v0l-7.426-3.954-2.128 3.996 6.934 3.692c0.164 0.087 0.275 0.209 0.333 0.364 0.052 0.152 0.032 0.314-0.059 0.484v0l-0.743 1.396c-0.087 0.164-0.209 0.267-0.364 0.31-0.161 0.039-0.324 0.015-0.488-0.073v0l-6.934-3.691-2.2 4.133 7.609 4.05c0.164 0.087 0.272 0.215 0.323 0.383 0.048 0.158 0.029 0.32-0.059 0.484v0l-0.796 1.496c-0.078 0.146-0.197 0.246-0.359 0.301-0.165 0.045-0.329 0.024-0.493-0.063zM89.496 270.146l-2.01-0.761c-0.155-0.059-0.269-0.165-0.344-0.318-0.066-0.157-0.069-0.314-0.011-0.468v0l5.896-15.583c0.066-0.174 0.174-0.295 0.325-0.363 0.157-0.066 0.314-0.069 0.468-0.011v0l1.846 0.698c0.226 0.085 0.37 0.199 0.435 0.342 0.064 0.142 0.104 0.242 0.119 0.299v0l2.836 13.328 3.976-10.508c0.066-0.174 0.171-0.296 0.315-0.367 0.145-0.071 0.304-0.073 0.478-0.007v0l2.011 0.761c0.174 0.066 0.295 0.174 0.363 0.325 0.075 0.153 0.079 0.317 0.013 0.491v0l-5.884 15.554c-0.066 0.174-0.179 0.297-0.339 0.37-0.151 0.068-0.307 0.072-0.468 0.01v0l-1.866-0.706c-0.219-0.083-0.356-0.197-0.411-0.343-0.053-0.153-0.096-0.254-0.129-0.303v0l-2.909-13.079-3.895 10.295c-0.059 0.155-0.165 0.269-0.318 0.344-0.151 0.068-0.317 0.068-0.497 0zM110.894 276.917v0c-1.546-0.347-2.786-0.866-3.719-1.556-0.939-0.691-1.598-1.471-1.974-2.339-0.372-0.86-0.483-1.701-0.334-2.522v0c0.033-0.148 0.112-0.261 0.235-0.339 0.123-0.078 0.259-0.101 0.407-0.068v0l2.218 0.498c0.222 0.05 0.376 0.134 0.463 0.252 0.088 0.112 0.157 0.244 0.208 0.397v0c0.03 0.339 0.151 0.694 0.364 1.067 0.213 0.373 0.543 0.712 0.99 1.016 0.446 0.312 1.041 0.552 1.787 0.72v0c1.203 0.27 2.145 0.273 2.826 0.009 0.675-0.272 1.089-0.748 1.242-1.426v0c0.109-0.484 0.038-0.906-0.213-1.267-0.25-0.367-0.674-0.741-1.274-1.122-0.605-0.39-1.418-0.841-2.439-1.353v0c-1.184-0.577-2.148-1.174-2.892-1.794-0.745-0.612-1.257-1.289-1.536-2.029-0.277-0.747-0.304-1.618-0.08-2.613v0c0.217-0.968 0.672-1.766 1.364-2.395 0.693-0.635 1.576-1.059 2.647-1.27 1.071-0.211 2.279-0.166 3.624 0.136v0c1.082 0.243 2.008 0.603 2.777 1.079 0.762 0.475 1.365 1.013 1.809 1.614 0.446 0.594 0.752 1.196 0.919 1.805 0.168 0.603 0.204 1.165 0.108 1.688v0c-0.03 0.134-0.104 0.245-0.223 0.331-0.112 0.088-0.251 0.113-0.419 0.076v0l-2.32-0.521c-0.134-0.03-0.261-0.094-0.38-0.192-0.119-0.097-0.199-0.246-0.239-0.445v0c0.015-0.54-0.212-1.054-0.682-1.541-0.462-0.492-1.126-0.835-1.993-1.03v0c-0.901-0.202-1.661-0.197-2.281 0.017-0.625 0.206-1.016 0.658-1.174 1.357v0c-0.106 0.471-0.055 0.888 0.153 1.253 0.206 0.371 0.585 0.742 1.138 1.114 0.552 0.371 1.3 0.8 2.243 1.287v0c1.341 0.633 2.415 1.259 3.222 1.878 0.807 0.619 1.344 1.294 1.611 2.025 0.273 0.732 0.3 1.589 0.079 2.571v0c-0.248 1.103-0.754 1.974-1.519 2.614-0.759 0.642-1.719 1.051-2.882 1.228-1.156 0.178-2.443 0.108-3.861-0.21zM124.498 279.13l-2.385-0.328c-0.164-0.023-0.299-0.1-0.406-0.234-0.099-0.139-0.137-0.29-0.115-0.454v0l2.273-16.526c0.023-0.171 0.101-0.306 0.233-0.406 0.139-0.099 0.29-0.137 0.454-0.115v0l2.386 0.328c0.184 0.025 0.323 0.104 0.416 0.235 0.093 0.131 0.128 0.282 0.105 0.453v0l-2.273 16.526c-0.023 0.164-0.097 0.3-0.223 0.407-0.125 0.101-0.28 0.139-0.465 0.114zM136.667 279.992v0c-1.515-0.052-2.811-0.348-3.889-0.888-1.071-0.54-1.895-1.344-2.472-2.412-0.577-1.075-0.866-2.394-0.868-3.959v0c0.011-0.737 0.029-1.464 0.054-2.18 0.025-0.716 0.057-1.449 0.096-2.2v0c0.108-1.548 0.493-2.831 1.156-3.849 0.669-1.018 1.56-1.77 2.673-2.256 1.12-0.492 2.413-0.714 3.88-0.663v0c1.467 0.05 2.745 0.359 3.836 0.928 1.084 0.561 1.925 1.372 2.523 2.434 0.598 1.062 0.894 2.368 0.89 3.919v0c0.009 0.752 0.001 1.486-0.024 2.202-0.025 0.716-0.067 1.442-0.127 2.177v0c-0.102 1.562-0.481 2.859-1.136 3.891-0.649 1.026-1.529 1.771-2.641 2.237-1.119 0.465-2.436 0.671-3.951 0.619zM136.767 277.048v0c1.109 0.038 2.022-0.258 2.74-0.888 0.725-0.63 1.137-1.688 1.236-3.174v0c0.06-0.749 0.101-1.441 0.123-2.075 0.022-0.64 0.028-1.33 0.019-2.067v0c-0.001-0.986-0.156-1.798-0.464-2.436-0.309-0.631-0.741-1.097-1.297-1.399-0.555-0.302-1.198-0.465-1.927-0.491v0c-0.716-0.025-1.361 0.095-1.936 0.358-0.567 0.263-1.031 0.699-1.389 1.307-0.352 0.615-0.562 1.415-0.631 2.399v0c-0.039 0.736-0.07 1.425-0.091 2.065-0.022 0.634-0.039 1.326-0.051 2.077v0c-0.003 1.489 0.336 2.573 1.016 3.251 0.673 0.678 1.557 1.036 2.652 1.073zM151.175 279.356l-2.139 0.211c-0.165 0.016-0.314-0.028-0.45-0.132-0.129-0.112-0.201-0.25-0.217-0.415v0l-1.639-16.58c-0.018-0.185 0.025-0.342 0.13-0.47 0.112-0.129 0.25-0.201 0.415-0.217v0l1.965-0.195c0.24-0.024 0.42 0.014 0.54 0.113 0.121 0.099 0.2 0.171 0.24 0.215v0l8.461 10.682-1.105-11.18c-0.018-0.185 0.022-0.341 0.12-0.469 0.098-0.127 0.24-0.2 0.425-0.218v0l2.139-0.212c0.185-0.018 0.342 0.025 0.47 0.13 0.135 0.104 0.212 0.249 0.23 0.434v0l1.635 16.55c0.018 0.185-0.028 0.346-0.139 0.481-0.105 0.128-0.243 0.201-0.415 0.218v0l-1.985 0.196c-0.233 0.023-0.407-0.019-0.521-0.125-0.115-0.113-0.198-0.185-0.25-0.214v0l-8.415-10.427 1.083 10.954c0.016 0.165-0.028 0.314-0.132 0.449-0.105 0.128-0.254 0.202-0.446 0.221zM174.389 275.419l-2.127 0.643c-0.132 0.04-0.266 0.026-0.401-0.041-0.135-0.067-0.225-0.173-0.269-0.318v0c-0.02-0.066-0.025-0.143-0.016-0.233v0l1.121-17.582c-0.002-0.172 0.051-0.343 0.158-0.512 0.103-0.161 0.276-0.278 0.52-0.352v0l2.662-0.804c0.251-0.076 0.457-0.073 0.617 0.008 0.17 0.085 0.312 0.197 0.426 0.335v0l10.682 14.015c0.037 0.075 0.066 0.146 0.085 0.212v0c0.044 0.145 0.031 0.282-0.037 0.411-0.069 0.129-0.166 0.212-0.292 0.25v0l-2.137 0.646c-0.224 0.068-0.408 0.066-0.552-0.006-0.137-0.074-0.238-0.155-0.301-0.244v0l-2.051-2.641-7.271 2.198-0.245 3.335c-0.003 0.109-0.041 0.232-0.115 0.369-0.074 0.137-0.226 0.241-0.457 0.311zM175.69 259.931l-0.476 8.393 5.55-1.677zM196.73 267.74v0c-1.447 0.647-2.75 0.973-3.91 0.978-1.166 0.008-2.16-0.223-2.982-0.693-0.813-0.467-1.405-1.074-1.776-1.821v0c-0.062-0.138-0.067-0.276-0.015-0.412 0.052-0.137 0.147-0.236 0.286-0.298v0l2.076-0.928c0.208-0.093 0.381-0.118 0.521-0.075 0.137 0.037 0.272 0.101 0.403 0.193v0c0.227 0.253 0.537 0.466 0.931 0.637 0.394 0.171 0.861 0.245 1.401 0.223 0.544-0.017 1.164-0.181 1.863-0.493v0c1.126-0.503 1.883-1.065 2.27-1.684 0.378-0.622 0.426-1.251 0.142-1.886v0c-0.203-0.453-0.512-0.748-0.929-0.887-0.419-0.145-0.983-0.191-1.692-0.137-0.718 0.049-1.639 0.174-2.764 0.375v0c-1.294 0.246-2.424 0.344-3.39 0.293-0.963-0.045-1.778-0.28-2.445-0.707-0.669-0.433-1.212-1.115-1.628-2.045v0c-0.405-0.906-0.518-1.817-0.34-2.736 0.176-0.924 0.629-1.791 1.361-2.601 0.732-0.81 1.727-1.497 2.986-2.059v0c1.013-0.453 1.97-0.718 2.87-0.797 0.895-0.075 1.7-0.005 2.415 0.21 0.713 0.21 1.318 0.509 1.817 0.898 0.495 0.382 0.861 0.811 1.096 1.287v0c0.056 0.126 0.063 0.259 0.02 0.399-0.037 0.137-0.134 0.241-0.291 0.311v0l-2.17 0.971c-0.126 0.056-0.266 0.081-0.42 0.074-0.154-0.007-0.307-0.078-0.458-0.214v0c-0.311-0.442-0.8-0.718-1.468-0.827-0.664-0.118-1.402 0.004-2.213 0.367v0c-0.843 0.377-1.449 0.837-1.818 1.379-0.378 0.539-0.421 1.135-0.128 1.79v0c0.197 0.44 0.488 0.744 0.872 0.912 0.387 0.174 0.913 0.245 1.578 0.211 0.665-0.033 1.52-0.136 2.567-0.31v0c1.453-0.295 2.688-0.436 3.706-0.423 1.017 0.013 1.851 0.233 2.502 0.659 0.657 0.423 1.191 1.094 1.602 2.012v0c0.461 1.032 0.577 2.033 0.347 3.004-0.224 0.968-0.749 1.871-1.575 2.708-0.819 0.834-1.893 1.548-3.22 2.142zM211.954 259.615v0c-1.354 0.823-2.606 1.311-3.757 1.462-1.156 0.155-2.171 0.05-3.045-0.314-0.865-0.361-1.529-0.889-1.991-1.583v0c-0.079-0.13-0.101-0.265-0.066-0.407 0.035-0.142 0.117-0.252 0.246-0.332v0l1.943-1.181c0.194-0.118 0.364-0.165 0.507-0.139 0.141 0.019 0.282 0.066 0.425 0.141v0c0.257 0.223 0.591 0.395 1.003 0.515 0.412 0.12 0.885 0.135 1.418 0.045 0.537-0.085 1.133-0.326 1.786-0.724v0c1.054-0.641 1.734-1.292 2.041-1.954 0.297-0.665 0.265-1.294-0.096-1.889v0c-0.258-0.424-0.602-0.678-1.033-0.764-0.434-0.091-1-0.066-1.696 0.076-0.706 0.139-1.604 0.379-2.695 0.72v0c-1.253 0.407-2.361 0.646-3.327 0.716-0.961 0.077-1.8-0.055-2.514-0.395-0.718-0.346-1.342-0.954-1.872-1.825v0c-0.516-0.848-0.742-1.738-0.68-2.671 0.058-0.939 0.4-1.856 1.024-2.751 0.625-0.896 1.526-1.702 2.703-2.418v0c0.948-0.576 1.864-0.96 2.748-1.151 0.878-0.187 1.686-0.219 2.422-0.094 0.733 0.119 1.372 0.339 1.915 0.662 0.54 0.317 0.956 0.697 1.249 1.14v0c0.072 0.118 0.095 0.249 0.07 0.393-0.019 0.141-0.102 0.256-0.25 0.345v0l-2.031 1.235c-0.118 0.072-0.253 0.114-0.407 0.127-0.154 0.013-0.314-0.039-0.481-0.155v0c-0.364-0.4-0.884-0.612-1.56-0.636-0.674-0.034-1.39 0.18-2.15 0.642v0c-0.789 0.48-1.332 1.012-1.63 1.596-0.307 0.582-0.275 1.179 0.097 1.791v0c0.251 0.412 0.577 0.677 0.98 0.796 0.406 0.124 0.937 0.128 1.592 0.012 0.655-0.116 1.491-0.326 2.508-0.63v0c1.405-0.475 2.612-0.77 3.623-0.885 1.011-0.115 1.866-0.002 2.565 0.339 0.705 0.337 1.319 0.936 1.842 1.796v0c0.587 0.966 0.828 1.944 0.721 2.936-0.1 0.989-0.508 1.95-1.222 2.884-0.708 0.931-1.683 1.774-2.925 2.529zM223.283 251.765l-1.946 1.42c-0.134 0.097-0.285 0.135-0.454 0.114-0.168-0.031-0.3-0.114-0.398-0.247v0l-9.833-13.475c-0.102-0.139-0.14-0.291-0.114-0.454 0.031-0.168 0.114-0.3 0.247-0.398v0l1.945-1.42c0.15-0.11 0.304-0.15 0.463-0.12 0.158 0.03 0.288 0.114 0.389 0.253v0l9.834 13.475c0.097 0.134 0.138 0.283 0.122 0.449-0.02 0.16-0.105 0.294-0.255 0.403zM232.142 244.408v0c-1.18 1.058-2.321 1.767-3.423 2.127-1.108 0.364-2.125 0.448-3.051 0.252-0.916-0.196-1.666-0.593-2.249-1.191v0c-0.101-0.113-0.148-0.242-0.14-0.388 0.008-0.146 0.068-0.27 0.181-0.371v0l1.693-1.518c0.169-0.152 0.327-0.229 0.474-0.231 0.142-0.007 0.29 0.013 0.443 0.061v0c0.293 0.172 0.653 0.279 1.08 0.322 0.427 0.043 0.895-0.03 1.402-0.217 0.512-0.182 1.053-0.528 1.623-1.039v0c0.918-0.824 1.467-1.589 1.647-2.296 0.17-0.708 0.023-1.321-0.442-1.84v0c-0.331-0.369-0.716-0.556-1.155-0.56-0.444-0.009-0.995 0.119-1.653 0.386-0.668 0.266-1.507 0.667-2.517 1.203v0c-1.156 0.63-2.202 1.069-3.138 1.316-0.931 0.252-1.779 0.277-2.544 0.074-0.769-0.208-1.495-0.691-2.176-1.45v0c-0.663-0.739-1.049-1.572-1.16-2.5-0.115-0.933 0.052-1.898 0.501-2.893 0.449-0.995 1.187-1.953 2.213-2.874v0c0.826-0.741 1.656-1.286 2.489-1.636 0.829-0.345 1.617-0.525 2.364-0.538 0.743-0.018 1.411 0.081 2.004 0.299 0.589 0.212 1.068 0.509 1.437 0.89v0c0.092 0.103 0.139 0.227 0.141 0.374 0.007 0.142-0.054 0.27-0.182 0.385v0l-1.769 1.588c-0.103 0.092-0.228 0.158-0.377 0.199-0.149 0.041-0.316 0.019-0.502-0.064v0c-0.431-0.326-0.981-0.439-1.65-0.338-0.669 0.091-1.334 0.433-1.995 1.026v0c-0.687 0.617-1.124 1.239-1.309 1.869-0.195 0.629-0.053 1.21 0.425 1.743v0c0.322 0.359 0.692 0.56 1.109 0.601 0.422 0.047 0.944-0.046 1.567-0.281 0.623-0.235 1.406-0.595 2.349-1.08v0c1.293-0.725 2.426-1.237 3.399-1.536 0.973-0.299 1.834-0.345 2.584-0.138 0.755 0.202 1.469 0.677 2.14 1.427v0c0.755 0.841 1.171 1.759 1.249 2.753 0.083 0.99-0.141 2.01-0.671 3.06-0.525 1.045-1.329 2.053-2.411 3.024zM244.411 231.332l-1.536 1.772c-0.113 0.13-0.252 0.201-0.418 0.213-0.175 0.012-0.325-0.035-0.449-0.144v0l-10.691-9.269-3.101 3.576c-0.108 0.125-0.247 0.196-0.417 0.213-0.17 0.007-0.318-0.043-0.443-0.151v0l-1.437-1.246c-0.141-0.122-0.217-0.265-0.229-0.431-0.007-0.17 0.043-0.318 0.152-0.443v0l8.552-9.863c0.122-0.141 0.265-0.217 0.43-0.228 0.165-0.012 0.318 0.043 0.459 0.165v0l1.437 1.246c0.125 0.108 0.196 0.247 0.213 0.417 0.012 0.165-0.043 0.318-0.165 0.459v0l-3.088 3.561 10.691 9.269c0.125 0.108 0.196 0.247 0.212 0.417 0.012 0.165-0.046 0.321-0.172 0.467zM250.904 223.038l-1.227 1.853c-0.076 0.115-0.188 0.19-0.335 0.224-0.147 0.035-0.284 0.01-0.41-0.073v0c-0.057-0.038-0.111-0.094-0.161-0.169v0l-10.357-14.252c-0.111-0.132-0.18-0.297-0.205-0.496-0.023-0.189 0.035-0.39 0.176-0.602v0l1.536-2.318c0.145-0.218 0.305-0.348 0.481-0.388 0.185-0.043 0.366-0.047 0.541-0.013v0l17.168 3.974c0.077 0.034 0.144 0.07 0.201 0.108v0c0.126 0.084 0.204 0.197 0.233 0.34 0.029 0.143 0.007 0.269-0.065 0.379v0l-1.233 1.861c-0.129 0.195-0.272 0.311-0.429 0.348-0.153 0.031-0.282 0.032-0.387 0.004v0l-3.264-0.725-4.196 6.333 1.94 2.723c0.067 0.086 0.116 0.205 0.147 0.358 0.031 0.153-0.02 0.33-0.154 0.531zM242.022 210.284l4.99 6.765 3.203-4.833zM261.449 205.867l-0.955 1.927c-0.073 0.148-0.19 0.252-0.35 0.31-0.163 0.05-0.319 0.038-0.467-0.035v0l-14.927-7.401c-0.167-0.083-0.276-0.202-0.33-0.36-0.05-0.163-0.038-0.319 0.036-0.467v0l0.877-1.768c0.107-0.216 0.235-0.349 0.382-0.399 0.148-0.05 0.251-0.079 0.309-0.089v0l13.543-1.51-10.065-4.991c-0.167-0.083-0.278-0.199-0.334-0.35-0.056-0.151-0.043-0.31 0.04-0.477v0l0.955-1.926c0.083-0.167 0.202-0.276 0.359-0.329 0.16-0.059 0.323-0.047 0.49 0.035v0l14.899 7.388c0.167 0.083 0.278 0.207 0.334 0.373 0.053 0.157 0.041 0.313-0.035 0.467v0l-0.886 1.787c-0.104 0.21-0.232 0.335-0.383 0.376-0.157 0.038-0.262 0.07-0.313 0.098v0l-13.303 1.607 9.862 4.889c0.148 0.073 0.252 0.19 0.311 0.351 0.053 0.157 0.037 0.322-0.049 0.494zM270.274 184.513l-0.74 2.227c-0.054 0.163-0.155 0.282-0.303 0.356-0.157 0.079-0.314 0.092-0.471 0.04v0l-13.428-4.461-1.492 4.493c-0.052 0.157-0.153 0.276-0.304 0.356-0.155 0.072-0.31 0.082-0.467 0.03v0l-1.805-0.599c-0.177-0.059-0.302-0.162-0.376-0.31-0.072-0.155-0.082-0.31-0.03-0.468v0l4.115-12.388c0.059-0.177 0.162-0.302 0.311-0.376 0.148-0.074 0.31-0.082 0.487-0.024v0l1.804 0.6c0.157 0.052 0.276 0.153 0.357 0.303 0.074 0.148 0.082 0.31 0.023 0.487v0l-1.486 4.473 13.428 4.461c0.157 0.052 0.276 0.153 0.357 0.303 0.074 0.148 0.081 0.314 0.02 0.497zM2.831 142.298c0-3.832 3.106-6.938 6.938-6.938 3.832 0 6.938 3.106 6.937 6.938 0 3.832-3.106 6.938-6.938 6.938-3.832 0-6.938-3.106-6.937-6.938zM263.294 142.298c0-3.832 3.106-6.938 6.937-6.938 3.832 0 6.938 3.106 6.938 6.938 0 3.832-3.106 6.938-6.938 6.938-3.832 0-6.938-3.106-6.937-6.938z" fill="#ffffff" data-fill-palette-color="primary"></path></svg></g></svg></g></svg></g></svg></g></svg><rect width="280" height="280" fill="none" stroke="none" visibility="hidden"></rect></g></svg></g></svg>